<svg width="904" height="157" viewBox="0 0 904 157" fill="none" xmlns="http://www.w3.org/2000/svg">
<path d="M16.5 115.875L17.75 120.5L16.375 120L16.5 115.875ZM6.375 138.375L7.875 138.75V137.125L12.5 134.125L12.625 136.875L14.25 136.5L13.25 135.875L15.625 132.75L14 133.375L14.75 132C9.5 134.25 6.70833 136.375 6.375 138.375ZM37.5 83.625L37.875 86.625L39 82.125L39.375 94L38.125 89.625L38.625 95.75L40.75 93.375L39.75 93.125L44.625 89C44.375 84.8333 44 82.4167 43.5 81.75L38.75 81.125L37.5 83.625ZM39.625 53.75L39.875 52.875C41.875 53.375 42.875 54.4583 42.875 56.125C42.9583 56.9583 43.625 57.375 44.875 57.375C50.4583 53.875 54.2083 49.375 56.125 43.875C56.7083 38.9583 58.9167 36.5 62.75 36.5C66.0833 35.0833 68.75 31.125 70.75 24.625C70.8333 24.2083 71 22.5833 71.25 19.75L70.375 16.5L71.25 15V11.75L68.75 14.625L70.375 11.5V9.5C70.375 9.25 70.6667 8.91667 71.25 8.5H73.625C75.875 7.41667 78 6.70833 80 6.375L78.125 5.25L82.875 6C84.375 5.66667 85.375 4.79167 85.875 3.375L87.25 6.125L88.5 3.375C91.3333 3.70833 93.125 4.70833 93.875 6.375C96.625 6.54167 98 6.75 98 7L99.5 6.625L99.75 3.625L100.125 6.625C103.708 6.625 105.5 7.58333 105.5 9.5C106 9.58333 106.25 10.125 106.25 11.125L105.5 13.875L106.25 13.75C106.25 15.8333 104.083 16.875 99.75 16.875C99.5833 17.5417 98.375 18.25 96.125 19L93.375 22L94 19.125L92.25 22.625L88.875 22L91 23.125L88.5 25.25L88.25 24.25L84.875 26.25L84.625 25.25C82.9583 25.25 80.875 28.4583 78.375 34.875C78.375 36.375 78.2083 37.875 77.875 39.375C78.0417 39.7917 78.125 40.25 78.125 40.75L75.875 43.875L78.625 42.875C78.2917 45.2917 77.25 46.5 75.5 46.5H72.25C70.4167 46.8333 69.5 47.7917 69.5 49.375C69.5 51.625 69.625 53 69.875 53.5C69.875 55.4167 68.6667 57.875 66.25 60.875C65.8333 61.7917 65.625 63 65.625 64.5L68.875 65.25L65.625 65.125C65.625 67.7083 66.5417 70.5833 68.375 73.75L65.875 74.375L68.375 75.375C68.375 75.7917 67.9583 77.0833 67.125 79.25C69.4583 84.8333 71.1667 87.625 72.25 87.625C76.1667 89.125 78.125 92.875 78.125 98.875C78.125 102.292 79.2083 104.75 81.375 106.25C82.2083 111.167 83.2917 113.625 84.625 113.625C85.9583 117.208 88.625 120.958 92.625 124.875C94.4583 126.375 95.375 129.042 95.375 132.875C95.375 135.042 98.7083 136.125 105.375 136.125C108.958 138.458 110.75 141.667 110.75 145.75V149.25C110.75 150.333 109.25 150.875 106.25 150.875L102.5 149.375L103.625 150.875C97.7917 150.458 94.625 150.25 94.125 150.25L94.625 148L93.25 150.25C89 150.25 85.75 151.333 83.5 153.5C81.5833 154.333 80.2083 154.75 79.375 154.75C71.4583 154.75 67.5 153.792 67.5 151.875L70 150.75L67.5 150.25C68.0833 145.5 68.4583 141.125 68.625 137.125C69.2917 136.042 71.1667 135.5 74.25 135.5L80.625 140.625L77.25 135.75C79.25 135.417 80.25 134.583 80.25 133.25C80.25 131.75 77.9583 129.167 73.375 125.5C72.7083 124.583 72.125 121.042 71.625 114.875C68.7917 109.792 66.9167 107.25 66 107.25C62.25 107.25 60.375 106.5 60.375 105C59.7917 101.167 58 95.9167 55 89.25C51.0833 84.3333 48.5 81.875 47.25 81.875C46.25 81.875 45.6667 84.3333 45.5 89.25L38.625 97.25C38.625 98 38.5417 98.5417 38.375 98.875C38.9583 100.958 39.25 102.667 39.25 104V105C38.6667 107.75 38.375 109.25 38.375 109.5V110.375C38.375 113.292 38.4583 117.167 38.625 122C36.7083 125.333 35.75 127.375 35.75 128.125C35.75 129.792 38.625 132.25 44.375 135.5C48.875 135.5 51.125 137.083 51.125 140.25C51.125 141.333 52.125 143.042 54.125 145.375V148.375C54.125 151.125 51.9583 152.5 47.625 152.5C44.125 155.5 41.5417 157 39.875 157H39.25L33 154.75H32.5C23.5 155 17.1667 155.125 13.5 155.125C5.08333 155.125 0.875 154.042 0.875 151.875C0.791667 150.625 0.541667 149.958 0.125 149.875C0.125 144.542 1.91667 140.708 5.5 138.375C5.83333 136.375 7.54167 134.708 10.625 133.375C13.7083 131.958 15.4583 130.75 15.875 129.75C16.4583 128.667 16.75 127.042 16.75 124.875L15.875 120.25L18 121L16.75 116.25V113.25C16.75 111.167 17.625 108.917 19.375 106.5C19.7917 104.833 20 103.042 20 101.125L19.5 101.25L19.25 92.625H20V88.5L20.5 89L20.75 86L20 86.375V84.25L20.75 79.5L19 76.875L21.125 77.25L21.5 74.875L19.75 76L20 67.375V63.625L18.25 56.25L20 59.875C20 54.9583 21 51.4583 23 49.375C21 46.625 20 43.625 20 40.375V36.75L19.125 34.5L20 35V33.125L22.75 30.5L20 29.5V25.875C20 22.4583 17.5417 20.75 12.625 20.75C9.625 20.75 8.125 19.25 8.125 16.25L12.5 15.5L8.125 15C8.125 13.0833 9.20833 10.8333 11.375 8.25C11.9583 4.16667 13.3333 2.125 15.5 2.125H16.5C17.0833 2.125 19.125 3 22.625 4.75C27.0417 4.91667 29.4167 5.125 29.75 5.375C32.5833 3.45833 34.2917 2.5 34.875 2.5C36.0417 2.25 37.2083 2.125 38.375 2.125L38.75 4.625L39.25 2.125C40.25 2.125 41.8333 3.54167 44 6.375C45.75 6.375 47.125 7.08333 48.125 8.5V11.125C46.625 13.2083 45.4583 15.5833 44.625 18.25C43.0417 20.1667 41.375 21.125 39.625 21.125L36.625 20.75C34.7917 21.1667 33.875 22.0417 33.875 23.375C33.875 26.9583 34.125 30.7083 34.625 34.625L34.5 36.375L38.5 42.25L34.25 38.25L33.75 41.875L35.375 40.375C35.2083 42.875 34.875 45.75 34.375 49L33.75 48.625L34 51.375L33.625 53.875C33.625 55.2917 34.4583 56.375 36.125 57.125C36.9583 54.2917 38 52.875 39.25 52.875L39 53.75C38.6667 53.8333 38.3333 54.0417 38 54.375C37.75 55.2917 37.625 56.0417 37.625 56.625C37.5417 58.375 37.25 60.875 36.75 64.125L38.5 57.75C38.8333 57.9167 39.1667 58 39.5 58C40.0833 58 40.5833 57.9583 41 57.875C41.4167 57.7083 41.625 57.0417 41.625 55.875C41.625 55.2917 41.4167 54.7917 41 54.375C40.5833 53.9583 40.125 53.75 39.625 53.75ZM71.25 47.375L73.75 47L72.125 50.625C71.7083 51.625 71.125 52.7083 70.375 53.875C70.125 52.4583 70 51.25 70 50.25C70 48.5833 70.4167 47.625 71.25 47.375ZM36 0.75L29.75 4.75L22.75 4.125L19.75 2.75L30.375 3.125L36 0.75ZM164.5 41.375C165.833 42.2083 167.375 42.6667 169.125 42.75L176.75 42.25C177.917 42.9167 179 43.25 180 43.25L181.75 43C183.5 46 186.792 47.625 191.625 47.875C192.875 49.2917 194 50.4167 195 51.25C196 52 196.875 52.875 197.625 53.875C198.375 54.875 199.042 56.1667 199.625 57.75C200.292 59.3333 200.875 61.625 201.375 64.625L203.375 82.625L203 88L203.875 96.25L200.375 96L203.375 97.875L204.125 103.875L203 110.375L203.875 119.75L203.375 122.25L204.25 134L205.875 133.375C207.375 133.375 208.208 135.75 208.375 140.5C210.292 139.833 211.25 138.625 211.25 136.875L211.125 135.875L212.875 133.125L214.625 134.5L216.375 134.25C218.792 134.25 220 136.333 220 140.5C220 141.833 219.792 142.917 219.375 143.75C218.958 144.583 218.5 145.375 218 146.125C217.5 146.792 217.042 147.542 216.625 148.375C216.208 149.208 216 150.292 216 151.625L212.875 151.5C210.708 152.667 208.417 153.25 206 153.25L198.375 151.5L195.75 151.875C195.333 149.458 194.25 147.417 192.5 145.75L187.75 145.25C187.167 147.083 185.417 148 182.5 148H181.75C182 148.833 184.042 149.542 187.875 150.125C180.542 150.792 174.583 151.667 170 152.75L166.375 152.25L163.25 153.625L160.875 153.125L157.375 154.5H151.875C150.792 153.917 149.292 153.625 147.375 153.625L142.625 154C142.625 154.833 144.833 155.5 149.25 156L141 156.75C140.25 153.083 137.417 151.167 132.5 151C131.75 148.167 129.5 146.542 125.75 146.125L123.5 144.5L124.125 142.5C122.792 141.417 122.125 140 122.125 138.25V138C121.375 135.917 121 133.792 121 131.625C121 129.292 121.5 126.917 122.5 124.5L123 121.875C121.417 120.292 120.625 118.25 120.625 115.75C120.625 114.75 121 114 121.75 113.5C122.5 113 123.375 112.583 124.375 112.25L124.25 111.25C124.25 109.25 125.25 108.25 127.25 108.25L128.375 108.375C129.708 107.292 130.375 105.875 130.375 104.125L130.25 103.125C130.917 102.625 131.667 102.25 132.5 102C133.417 101.75 134.25 101.5 135 101.25C135.833 100.917 136.5 100.5 137 100C137.583 99.4167 137.875 98.5833 137.875 97.5V96.625C139.958 95.125 142.542 94.375 145.625 94.375C147.958 93.125 150.792 92.4167 154.125 92.25L155.125 88.25H165.5C165.417 88.4167 165.375 88.5833 165.375 88.75C165.375 88.9167 165.5 89 165.75 89C166 89 166.208 89 166.375 89C166.542 88.9167 166.833 88.8333 167.25 88.75L168.625 90.375L164 90.25L169.125 91.75C169.708 91.4167 170 90.9167 170 90.25L169.5 88.75H170.25C172 88.75 173.542 88.3333 174.875 87.5L177.875 87.875C180.042 87.875 181.917 87.4583 183.5 86.625L183.125 67.75C183.125 64.0833 181.75 61.375 179 59.625L176.25 57.875L165.875 56.125L163.625 57.5C162.875 57 162.083 56.75 161.25 56.75C160.083 56.75 159.083 57.125 158.25 57.875C157.417 58.625 156.75 59.5833 156.25 60.75L151.125 63.25C150.125 63.9167 149.625 64.8333 149.625 66L150.125 68.375L148.75 78.25C147.25 80.4167 146.5 82.7917 146.5 85.375L145.625 86.625L144.5 86.5C142.75 86.5 141 87 139.25 88C138.083 86.75 136.542 86.125 134.625 86.125L133.875 82.625L129.75 81.75C129.167 80.6667 128.875 78.75 128.875 76L128.375 74.5C127.208 74.75 126.333 75.1667 125.75 75.75C125.417 75.1667 125.25 73.8333 125.25 71.75L125.875 63.375L128.25 64.625C127.5 65.2917 127.125 66.1667 127.125 67.25L127.5 69.625L128.875 68.375L128.75 66.75C128.75 62.9167 130 59.125 132.5 55.375L133.625 51.375C137.042 51.375 139.958 49.9167 142.375 47L144.125 47.25C145.708 47.25 146.5 46.4583 146.5 44.875L147.375 43.5L154.125 43L159.625 41.875L160.25 42.875L160.5 41.375H164.5ZM190.75 107.5C189.917 108.083 188.542 108.375 186.625 108.375C182.875 108.375 179.542 108 176.625 107.25C173.708 106.5 171.708 105.792 170.625 105.125L167.25 106.25C167.167 103.417 165.375 101.958 161.875 101.875C163.875 103.542 164.875 104.625 164.875 105.125L164.25 105.5L159.125 104L158.625 105.75C157.208 106.083 155.875 106.792 154.625 107.875H153.5C149.75 107.875 147.25 109.5 146 112.75L144.5 112.125C142.75 112.125 139.792 113.333 135.625 115.75L134.5 115.375L133.75 121.125C133.75 121.958 134.333 122.958 135.5 124.125C134.75 126.292 134.375 127.958 134.375 129.125C134.375 130.708 135.042 131.5 136.375 131.5L137.5 131.375V132.375C137.5 137.042 139.833 139.375 144.5 139.375L146.5 139.25L146.875 144.875C148.458 145.708 151.125 146.125 154.875 146.125H157.75C159.417 146.125 161 145.792 162.5 145.125C164 144.458 165 143.083 165.5 141C167.083 139.917 168.375 139.375 169.375 139.375L171.625 139.75L174.875 139.25C174.958 136.083 176.042 133.333 178.125 131L177.625 127.5H178.125C182.292 127.5 184.375 125.417 184.375 121.25V120.5C185.708 119.917 186.375 118.917 186.375 117.5L185 109.375C186.583 110.375 187.833 110.875 188.75 110.875C189.833 110.875 190.5 109.75 190.75 107.5ZM139.375 122.75L137.5 123.125C135.5 123.125 134.5 121.75 134.5 119C134.5 118.333 134.542 117.75 134.625 117.25C134.792 116.667 135.333 116.375 136.25 116.375C137.917 116.375 138.958 118.5 139.375 122.75ZM147.625 137.5L143.625 138.125C140.208 138.125 138.5 136.25 138.5 132.5V131.5L147.625 137.5ZM158.25 142.375L160.5 142.25C162.75 142.25 163.875 142.542 163.875 143.125C163.875 143.625 162.708 144.375 160.375 145.375L158.25 142.375ZM160.75 154.75C162.417 155.667 163.25 156.292 163.25 156.625H157.75L160.75 154.75ZM156.75 155.625L155.875 156.5C155.458 156.5 155.083 156.208 154.75 155.625H156.75ZM153 89.375L152.125 90.25C151.708 90.25 151.333 89.9583 151 89.375H153ZM231.375 150.875L233 143.375C236.417 142.625 238.125 141.417 238.125 139.75L238 139.125L246.25 136.625L249.25 137.875C250.583 135.292 252.083 134 253.75 134L255.5 134.625L260 127.625V123.5C258.75 119.167 258.125 115.208 258.125 111.625C258.125 108.042 258.75 104.792 260 101.875L258 99.25L260.625 89C260.042 86.6667 259.625 84.5417 259.375 82.625C259.125 80.625 259 78.8333 259 77.25C259 74.75 259.375 72.875 260.125 71.625L257.625 69.875C259.042 67.7083 259.75 66.125 259.75 65.125C259.75 64.5417 259.583 64.125 259.25 63.875C258.917 63.5417 258.542 63.25 258.125 63C257.708 62.6667 257.333 62.375 257 62.125C256.667 61.7917 256.5 61.3333 256.5 60.75L257 59.125H250.125C248.958 57.9583 247.667 57.375 246.25 57.375C244.75 57.375 242.917 58.0833 240.75 59.5C237.083 57.5833 235.25 55.625 235.25 53.625L235.375 52.625L237.25 51.875L235.375 49.125L242.125 41.875L247.5 45.375C248.75 43.875 250.208 43.125 251.875 43.125C253.375 43.125 255.083 43.7083 257 44.875C257.417 46.2917 257.792 47 258.125 47C258.708 47 259.167 45.2083 259.5 41.625L268.75 41.75C269 44.4167 272.958 46.25 280.625 47.25C277.708 49.6667 276.25 51.875 276.25 53.875C276.25 54.4583 276.375 55.0833 276.625 55.75C276.958 56.4167 277.292 57.0833 277.625 57.75C278.042 58.3333 278.375 58.9167 278.625 59.5C278.958 60.0833 279.125 60.5833 279.125 61C279.125 61.6667 278.875 62.1667 278.375 62.5C277.958 62.8333 277.75 63.2083 277.75 63.625C277.75 64.4583 279.125 65.25 281.875 66L283.5 63.875L288.25 62.75L285.375 60.625L293.375 56.125L292.5 52.75L295.25 53.5C297 53.5 298.25 52.1667 299 49.5L302.5 46.875L305.5 47.125C309.25 47.125 312.208 45.9167 314.375 43.5L317.375 44L319.125 45.5C319.958 44.75 320.792 44.375 321.625 44.375C322.042 44.375 322.458 44.5417 322.875 44.875C323.292 45.2083 323.75 45.5833 324.25 46C324.75 46.4167 325.333 46.8333 326 47.25C326.667 47.6667 327.417 47.9583 328.25 48.125L331.125 52.5L333.375 49.75L332.5 54.625L334 56.75L332.75 59.125C333.75 60.875 334.25 62.6667 334.25 64.5C334.25 68 332.583 71.5417 329.25 75.125L328.375 73.25L326.25 74.375L327.875 76.875L323.75 76.125C322.167 76.125 320.958 76.5417 320.125 77.375L316.625 77.25L316.5 74.875L315.25 75C312.5 75 310.458 73.375 309.125 70.125C310.458 68.2917 311.125 66.875 311.125 65.875C311.125 64.7917 310.292 64.25 308.625 64.25L306.375 64.5L306.125 60.625C303.375 61.625 302 62.7083 302 63.875L302.375 65.125L300.375 66.25L301.5 72.125L298.375 67.375C296.542 72.7083 294.292 75.375 291.625 75.375C290.708 75.375 289.833 75.0833 289 74.5L284.625 76.625L284.375 79.375L279 79.25L276.125 84.5C277.625 85.75 278.375 86.9583 278.375 88.125C278.375 89.2917 277.625 90.4167 276.125 91.5V102.625L278.25 103.625V112L276.125 111.5L278.75 127.375L276.375 128L278.25 133.5H278.75C283.5 133.5 285.875 134.375 285.875 136.125L285.375 137.625C286.958 136.792 288.792 136.375 290.875 136.375C292.625 136.375 294.333 136.833 296 137.75L300.125 135.375L305.25 135.5L306.75 138.75L310 138.125C314.333 138.125 318.333 141.75 322 149L319.125 153.5L314.25 151L313 154.375L308.25 154.125C305 154.125 302 154.5 299.25 155.25L292 152.875L288.5 152.375L287.875 156.25L280.75 153.25L273.875 155.75L266.75 151.75C265.833 154.25 264.042 155.5 261.375 155.5C259.042 155.5 256.083 154.583 252.5 152.75L248.25 155L239.375 154.375C238.458 152.958 237.667 152.25 237 152.25C236.25 152.25 235.667 153.208 235.25 155.125L231.375 150.875ZM384.75 39.5L389.75 39.125C392.833 39.125 395.125 39.4167 396.625 40L399.875 38.875C400.958 39.9583 402.25 40.5 403.75 40.5C405.167 40.5 406.833 39.875 408.75 38.625V39.375C408.75 42.125 409.958 43.5 412.375 43.5L413.625 43.375C415.042 43.375 416.167 43.6667 417 44.25C417.917 44.75 418.708 45.375 419.375 46.125C420.042 46.875 420.667 47.6667 421.25 48.5C421.917 49.25 422.667 49.875 423.5 50.375C425.167 51.125 426.583 53.4583 427.75 57.375L433.25 59.875V60.5C433.25 61.75 433.375 62.7083 433.625 63.375C433.958 64.0417 434.292 64.625 434.625 65.125C435.042 65.5417 435.375 65.9583 435.625 66.375C435.958 66.7917 436.125 67.4167 436.125 68.25L436 69.5C436 71.3333 437.167 73.6667 439.5 76.5L438.625 79.375L438.75 84.375L441.75 89.375L442.125 92.875C442.125 95.7083 441.5 98.5417 440.25 101.375V107.875C441.333 109.958 441.875 112.292 441.875 114.875L441.75 116.875C437.083 119.875 434.5 124.042 434 129.375C433.5 134.708 427.75 141.375 416.75 149.375H408.25C405.583 152.292 402.708 153.75 399.625 153.75C398.708 153.75 397.792 153.625 396.875 153.375C395.958 153.042 394.958 152.708 393.875 152.375C392.792 152.042 391.625 151.75 390.375 151.5C389.125 151.167 387.708 151 386.125 151L377 151.875L365.75 144.5L366.75 140.875L360.875 139.75L361.375 138C361.375 137.417 361.083 137.125 360.5 137.125L359.25 137.375C358.75 135.208 357.5 133.167 355.5 131.25L357.625 127.625L354.75 127.375V126.625C354.75 124.375 354.5 122.458 354 120.875C353.5 119.208 352.958 117.833 352.375 116.75C351.875 115.583 351.375 114.583 350.875 113.75C350.375 112.833 350.125 112 350.125 111.25L350.25 110.25C350.25 108.5 349.333 105.833 347.5 102.25L349.75 100.25L347.25 99.875C348.417 97.7083 349 95.7917 349 94.125L347.875 89.25C347.875 89 347.958 88.7917 348.125 88.625C348.292 88.375 348.458 87.9583 348.625 87.375C348.792 86.7917 348.958 85.9583 349.125 84.875C349.375 83.7083 349.542 82.0417 349.625 79.875C349.792 75.7083 350.083 73.625 350.5 73.625L351.5 74.625C351.667 74.625 351.917 74.2083 352.25 73.375C352.583 72.5417 352.75 71.5417 352.75 70.375L351.75 65.875C352 64.7917 352.333 63.625 352.75 62.375C353.25 61.125 353.75 59.9583 354.25 58.875C354.833 57.7917 355.458 56.9167 356.125 56.25C356.792 55.5 357.5 55.125 358.25 55.125C358.917 55.125 359.583 55.4583 360.25 56.125V53.375L370.5 48.875V45.875L373.25 47.375C376.583 42.7917 380.417 40.1667 384.75 39.5ZM399.75 58.375L397.75 59.875C395.75 59.2917 393.375 59 390.625 59C386.042 59 383.5 60.5 383 63.5C382.5 65.9167 381.625 67.5833 380.375 68.5C379.125 69.3333 377.833 70 376.5 70.5C375.25 70.9167 374.125 71.4583 373.125 72.125C372.125 72.7917 371.625 74.0833 371.625 76L371.75 76.125C371.75 77.625 371.625 78.9583 371.375 80.125C371.125 81.2917 370.833 82.375 370.5 83.375C370.167 84.2917 369.875 85.1667 369.625 86C369.375 86.8333 369.25 87.6667 369.25 88.5L370.25 94.625L369.5 98.875L370.25 104.125L369.25 115.25C369.25 120.083 371.458 123.75 375.875 126.25C377.875 126.667 379.333 127.375 380.25 128.375C381.25 129.375 382 130.417 382.5 131.5C383.083 132.5 383.583 133.417 384 134.25C384.5 135 385.333 135.375 386.5 135.375L395.75 133.25C396.667 133.25 397.5 133.417 398.25 133.75C399 134 399.708 134.333 400.375 134.75C401.042 135.083 401.667 135.417 402.25 135.75C402.917 136 403.583 136.125 404.25 136.125C405.083 136.125 406 135.917 407 135.5C408 135 408.917 134.417 409.75 133.75C410.583 133.083 411.25 132.417 411.75 131.75C412.333 131.083 412.625 130.542 412.625 130.125C412.625 129.625 412.333 129.208 411.75 128.875C418.5 125.708 422.167 119.875 422.75 111.375L424.625 112.625L422.25 104.625L422.5 101.125L426.625 102.875C425.875 101.042 424.583 99.875 422.75 99.375C424.333 97.5417 425.125 95.625 425.125 93.625C425.125 91.625 424.333 89.7083 422.75 87.875L423 85.625C423 84.2083 422.667 83.0833 422 82.25C421.417 81.4167 421.125 80.1667 421.125 78.5L421.25 76C421.25 74.75 420.792 73.7917 419.875 73.125C419.042 72.375 418.042 71.7083 416.875 71.125C415.792 70.5417 414.75 69.9167 413.75 69.25C412.833 68.5 412.292 67.4583 412.125 66.125C411.792 63.625 409.167 62.0417 404.25 61.375L404.375 62.5C404.375 65.75 401.625 67.375 396.125 67.375H395.75C397.75 66.375 398.75 65.4167 398.75 64.5C398.75 63.9167 398.375 63.375 397.625 62.875C400.708 62.7917 402.25 62.4583 402.25 61.875C402.25 61.375 401.417 60.7917 399.75 60.125V58.375ZM498.5 39.5L503.5 39.125C506.583 39.125 508.875 39.4167 510.375 40L513.625 38.875C514.708 39.9583 516 40.5 517.5 40.5C518.917 40.5 520.583 39.875 522.5 38.625V39.375C522.5 42.125 523.708 43.5 526.125 43.5L527.375 43.375C528.792 43.375 529.917 43.6667 530.75 44.25C531.667 44.75 532.458 45.375 533.125 46.125C533.792 46.875 534.417 47.6667 535 48.5C535.667 49.25 536.417 49.875 537.25 50.375C538.917 51.125 540.333 53.4583 541.5 57.375L547 59.875V60.5C547 61.75 547.125 62.7083 547.375 63.375C547.708 64.0417 548.042 64.625 548.375 65.125C548.792 65.5417 549.125 65.9583 549.375 66.375C549.708 66.7917 549.875 67.4167 549.875 68.25L549.75 69.5C549.75 71.3333 550.917 73.6667 553.25 76.5L552.375 79.375L552.5 84.375L555.5 89.375L555.875 92.875C555.875 95.7083 555.25 98.5417 554 101.375V107.875C555.083 109.958 555.625 112.292 555.625 114.875L555.5 116.875C550.833 119.875 548.25 124.042 547.75 129.375C547.25 134.708 541.5 141.375 530.5 149.375H522C519.333 152.292 516.458 153.75 513.375 153.75C512.458 153.75 511.542 153.625 510.625 153.375C509.708 153.042 508.708 152.708 507.625 152.375C506.542 152.042 505.375 151.75 504.125 151.5C502.875 151.167 501.458 151 499.875 151L490.75 151.875L479.5 144.5L480.5 140.875L474.625 139.75L475.125 138C475.125 137.417 474.833 137.125 474.25 137.125L473 137.375C472.5 135.208 471.25 133.167 469.25 131.25L471.375 127.625L468.5 127.375V126.625C468.5 124.375 468.25 122.458 467.75 120.875C467.25 119.208 466.708 117.833 466.125 116.75C465.625 115.583 465.125 114.583 464.625 113.75C464.125 112.833 463.875 112 463.875 111.25L464 110.25C464 108.5 463.083 105.833 461.25 102.25L463.5 100.25L461 99.875C462.167 97.7083 462.75 95.7917 462.75 94.125L461.625 89.25C461.625 89 461.708 88.7917 461.875 88.625C462.042 88.375 462.208 87.9583 462.375 87.375C462.542 86.7917 462.708 85.9583 462.875 84.875C463.125 83.7083 463.292 82.0417 463.375 79.875C463.542 75.7083 463.833 73.625 464.25 73.625L465.25 74.625C465.417 74.625 465.667 74.2083 466 73.375C466.333 72.5417 466.5 71.5417 466.5 70.375L465.5 65.875C465.75 64.7917 466.083 63.625 466.5 62.375C467 61.125 467.5 59.9583 468 58.875C468.583 57.7917 469.208 56.9167 469.875 56.25C470.542 55.5 471.25 55.125 472 55.125C472.667 55.125 473.333 55.4583 474 56.125V53.375L484.25 48.875V45.875L487 47.375C490.333 42.7917 494.167 40.1667 498.5 39.5ZM513.5 58.375L511.5 59.875C509.5 59.2917 507.125 59 504.375 59C499.792 59 497.25 60.5 496.75 63.5C496.25 65.9167 495.375 67.5833 494.125 68.5C492.875 69.3333 491.583 70 490.25 70.5C489 70.9167 487.875 71.4583 486.875 72.125C485.875 72.7917 485.375 74.0833 485.375 76L485.5 76.125C485.5 77.625 485.375 78.9583 485.125 80.125C484.875 81.2917 484.583 82.375 484.25 83.375C483.917 84.2917 483.625 85.1667 483.375 86C483.125 86.8333 483 87.6667 483 88.5L484 94.625L483.25 98.875L484 104.125L483 115.25C483 120.083 485.208 123.75 489.625 126.25C491.625 126.667 493.083 127.375 494 128.375C495 129.375 495.75 130.417 496.25 131.5C496.833 132.5 497.333 133.417 497.75 134.25C498.25 135 499.083 135.375 500.25 135.375L509.5 133.25C510.417 133.25 511.25 133.417 512 133.75C512.75 134 513.458 134.333 514.125 134.75C514.792 135.083 515.417 135.417 516 135.75C516.667 136 517.333 136.125 518 136.125C518.833 136.125 519.75 135.917 520.75 135.5C521.75 135 522.667 134.417 523.5 133.75C524.333 133.083 525 132.417 525.5 131.75C526.083 131.083 526.375 130.542 526.375 130.125C526.375 129.625 526.083 129.208 525.5 128.875C532.25 125.708 535.917 119.875 536.5 111.375L538.375 112.625L536 104.625L536.25 101.125L540.375 102.875C539.625 101.042 538.333 99.875 536.5 99.375C538.083 97.5417 538.875 95.625 538.875 93.625C538.875 91.625 538.083 89.7083 536.5 87.875L536.75 85.625C536.75 84.2083 536.417 83.0833 535.75 82.25C535.167 81.4167 534.875 80.1667 534.875 78.5L535 76C535 74.75 534.542 73.7917 533.625 73.125C532.792 72.375 531.792 71.7083 530.625 71.125C529.542 70.5417 528.5 69.9167 527.5 69.25C526.583 68.5 526.042 67.4583 525.875 66.125C525.542 63.625 522.917 62.0417 518 61.375L518.125 62.5C518.125 65.75 515.375 67.375 509.875 67.375H509.5C511.5 66.375 512.5 65.4167 512.5 64.5C512.5 63.9167 512.125 63.375 511.375 62.875C514.458 62.7917 516 62.4583 516 61.875C516 61.375 515.167 60.7917 513.5 60.125V58.375ZM622.875 111L624.125 109.75L628.25 110.125C632.25 111.958 636.833 114.583 642 118C644.917 121.583 646.667 124.333 647.25 126.25C647.833 128.083 648.125 130.125 648.125 132.375C648.125 135.708 647.75 138.792 647 141.625C646.333 144.375 644.958 146.792 642.875 148.875C640.708 150.958 637.667 152.625 633.75 153.875C629.833 155.125 624.708 155.875 618.375 156.125C606.375 152.042 600.375 145.958 600.375 137.875C600.375 135.458 600.833 133.958 601.75 133.375C601.917 132.958 602 132.625 602 132.375C602 131.625 601.542 131.042 600.625 130.625L601.75 129.875C601.417 128.958 601.25 127.917 601.25 126.75C601.25 125.5 601.458 124.125 601.875 122.625C606.208 118.125 609.667 115.875 612.25 115.875L612.75 116.75L613.625 114.625L611 113L614.25 114.125C614.75 114.125 615.083 113.667 615.25 112.75L616.75 113.875C617.25 113.375 617.5 112.875 617.5 112.375V112C617.417 111.917 617.375 111.833 617.375 111.75C617.375 111.25 617.833 111 618.75 111L620.625 110.125C621.208 110.708 621.792 111 622.375 111H622.875ZM733.25 41.375C734.583 42.2083 736.125 42.6667 737.875 42.75L745.5 42.25C746.667 42.9167 747.75 43.25 748.75 43.25L750.5 43C752.25 46 755.542 47.625 760.375 47.875C761.625 49.2917 762.75 50.4167 763.75 51.25C764.75 52 765.625 52.875 766.375 53.875C767.125 54.875 767.792 56.1667 768.375 57.75C769.042 59.3333 769.625 61.625 770.125 64.625L772.125 82.625L771.75 88L772.625 96.25L769.125 96L772.125 97.875L772.875 103.875L771.75 110.375L772.625 119.75L772.125 122.25L773 134L774.625 133.375C776.125 133.375 776.958 135.75 777.125 140.5C779.042 139.833 780 138.625 780 136.875L779.875 135.875L781.625 133.125L783.375 134.5L785.125 134.25C787.542 134.25 788.75 136.333 788.75 140.5C788.75 141.833 788.542 142.917 788.125 143.75C787.708 144.583 787.25 145.375 786.75 146.125C786.25 146.792 785.792 147.542 785.375 148.375C784.958 149.208 784.75 150.292 784.75 151.625L781.625 151.5C779.458 152.667 777.167 153.25 774.75 153.25L767.125 151.5L764.5 151.875C764.083 149.458 763 147.417 761.25 145.75L756.5 145.25C755.917 147.083 754.167 148 751.25 148H750.5C750.75 148.833 752.792 149.542 756.625 150.125C749.292 150.792 743.333 151.667 738.75 152.75L735.125 152.25L732 153.625L729.625 153.125L726.125 154.5H720.625C719.542 153.917 718.042 153.625 716.125 153.625L711.375 154C711.375 154.833 713.583 155.5 718 156L709.75 156.75C709 153.083 706.167 151.167 701.25 151C700.5 148.167 698.25 146.542 694.5 146.125L692.25 144.5L692.875 142.5C691.542 141.417 690.875 140 690.875 138.25V138C690.125 135.917 689.75 133.792 689.75 131.625C689.75 129.292 690.25 126.917 691.25 124.5L691.75 121.875C690.167 120.292 689.375 118.25 689.375 115.75C689.375 114.75 689.75 114 690.5 113.5C691.25 113 692.125 112.583 693.125 112.25L693 111.25C693 109.25 694 108.25 696 108.25L697.125 108.375C698.458 107.292 699.125 105.875 699.125 104.125L699 103.125C699.667 102.625 700.417 102.25 701.25 102C702.167 101.75 703 101.5 703.75 101.25C704.583 100.917 705.25 100.5 705.75 100C706.333 99.4167 706.625 98.5833 706.625 97.5V96.625C708.708 95.125 711.292 94.375 714.375 94.375C716.708 93.125 719.542 92.4167 722.875 92.25L723.875 88.25H734.25C734.167 88.4167 734.125 88.5833 734.125 88.75C734.125 88.9167 734.25 89 734.5 89C734.75 89 734.958 89 735.125 89C735.292 88.9167 735.583 88.8333 736 88.75L737.375 90.375L732.75 90.25L737.875 91.75C738.458 91.4167 738.75 90.9167 738.75 90.25L738.25 88.75H739C740.75 88.75 742.292 88.3333 743.625 87.5L746.625 87.875C748.792 87.875 750.667 87.4583 752.25 86.625L751.875 67.75C751.875 64.0833 750.5 61.375 747.75 59.625L745 57.875L734.625 56.125L732.375 57.5C731.625 57 730.833 56.75 730 56.75C728.833 56.75 727.833 57.125 727 57.875C726.167 58.625 725.5 59.5833 725 60.75L719.875 63.25C718.875 63.9167 718.375 64.8333 718.375 66L718.875 68.375L717.5 78.25C716 80.4167 715.25 82.7917 715.25 85.375L714.375 86.625L713.25 86.5C711.5 86.5 709.75 87 708 88C706.833 86.75 705.292 86.125 703.375 86.125L702.625 82.625L698.5 81.75C697.917 80.6667 697.625 78.75 697.625 76L697.125 74.5C695.958 74.75 695.083 75.1667 694.5 75.75C694.167 75.1667 694 73.8333 694 71.75L694.625 63.375L697 64.625C696.25 65.2917 695.875 66.1667 695.875 67.25L696.25 69.625L697.625 68.375L697.5 66.75C697.5 62.9167 698.75 59.125 701.25 55.375L702.375 51.375C705.792 51.375 708.708 49.9167 711.125 47L712.875 47.25C714.458 47.25 715.25 46.4583 715.25 44.875L716.125 43.5L722.875 43L728.375 41.875L729 42.875L729.25 41.375H733.25ZM759.5 107.5C758.667 108.083 757.292 108.375 755.375 108.375C751.625 108.375 748.292 108 745.375 107.25C742.458 106.5 740.458 105.792 739.375 105.125L736 106.25C735.917 103.417 734.125 101.958 730.625 101.875C732.625 103.542 733.625 104.625 733.625 105.125L733 105.5L727.875 104L727.375 105.75C725.958 106.083 724.625 106.792 723.375 107.875H722.25C718.5 107.875 716 109.5 714.75 112.75L713.25 112.125C711.5 112.125 708.542 113.333 704.375 115.75L703.25 115.375L702.5 121.125C702.5 121.958 703.083 122.958 704.25 124.125C703.5 126.292 703.125 127.958 703.125 129.125C703.125 130.708 703.792 131.5 705.125 131.5L706.25 131.375V132.375C706.25 137.042 708.583 139.375 713.25 139.375L715.25 139.25L715.625 144.875C717.208 145.708 719.875 146.125 723.625 146.125H726.5C728.167 146.125 729.75 145.792 731.25 145.125C732.75 144.458 733.75 143.083 734.25 141C735.833 139.917 737.125 139.375 738.125 139.375L740.375 139.75L743.625 139.25C743.708 136.083 744.792 133.333 746.875 131L746.375 127.5H746.875C751.042 127.5 753.125 125.417 753.125 121.25V120.5C754.458 119.917 755.125 118.917 755.125 117.5L753.75 109.375C755.333 110.375 756.583 110.875 757.5 110.875C758.583 110.875 759.25 109.75 759.5 107.5ZM708.125 122.75L706.25 123.125C704.25 123.125 703.25 121.75 703.25 119C703.25 118.333 703.292 117.75 703.375 117.25C703.542 116.667 704.083 116.375 705 116.375C706.667 116.375 707.708 118.5 708.125 122.75ZM716.375 137.5L712.375 138.125C708.958 138.125 707.25 136.25 707.25 132.5V131.5L716.375 137.5ZM727 142.375L729.25 142.25C731.5 142.25 732.625 142.542 732.625 143.125C732.625 143.625 731.458 144.375 729.125 145.375L727 142.375ZM729.5 154.75C731.167 155.667 732 156.292 732 156.625H726.5L729.5 154.75ZM725.5 155.625L724.625 156.5C724.208 156.5 723.833 156.208 723.5 155.625H725.5ZM721.75 89.375L720.875 90.25C720.458 90.25 720.083 89.9583 719.75 89.375H721.75ZM857.5 41.75C857.75 44.4167 861.708 46.25 869.375 47.25C866.458 49.6667 865 51.875 865 53.875C865 54.4583 865.125 55.0833 865.375 55.75C865.708 56.4167 866.042 57.0833 866.375 57.75C866.792 58.3333 867.125 58.9167 867.375 59.5C867.708 60.0833 867.875 60.5833 867.875 61C867.875 61.4167 867.792 61.75 867.625 62C867.458 62.25 867.25 62.5833 867 63C866.75 63.3333 866.542 63.8333 866.375 64.5C866.208 65.0833 866.125 65.9167 866.125 67L867 75.375L864.875 74V84.5C866.375 85.75 867.125 86.9583 867.125 88.125C867.125 89.2917 866.375 90.4167 864.875 91.5V102.625L867 103.625V112L864.875 111.5L867.5 127.375L865.125 128L867 133.5H867.5C871.417 133.5 873.375 134.292 873.375 135.875L872.875 137.625L886.75 138.75L890.375 138.125C895.292 138.125 899.583 141.75 903.25 149L900.375 155.75L895.5 151L894.25 154.375C892.583 154.958 890.458 155.25 887.875 155.25C883.375 155.25 879 153.75 874.75 150.75L875.375 156.25L869.5 153.25L862.625 155.75L863.375 150.75C859.458 153.75 855.333 155.25 851 155.25C848.333 155.25 845.083 154.417 841.25 152.75L833.25 155L819.375 154.375C818.458 152.958 817.417 152.25 816.25 152.25C814.833 152.25 813.25 153.208 811.5 155.125L807.625 150.875L809.25 143.375C815.083 142.625 818 141.333 818 139.5L831.25 136.625L834.25 137.875C836.833 135.292 839.292 134 841.625 134L844.25 134.625L848.75 127.625V123.5C847.5 119.167 846.875 115.208 846.875 111.625C846.875 108.042 847.5 104.792 848.75 101.875L846.75 99.25L849.375 89C848.792 86.6667 848.375 84.5417 848.125 82.625C847.875 80.625 847.75 78.8333 847.75 77.25C847.75 74.75 848.125 72.875 848.875 71.625L846.375 69.875C847.792 67.7083 848.5 66.125 848.5 65.125C848.5 64.5417 848.333 64.125 848 63.875C847.667 63.5417 847.292 63.25 846.875 63C846.458 62.6667 846.083 62.375 845.75 62.125C845.417 61.7917 845.25 61.3333 845.25 60.75L845.75 59.125H837.625C835.958 58.125 834.167 57.625 832.25 57.625C829.333 57.625 826.333 58.6667 823.25 60.75C819.583 58.8333 817.75 56.875 817.75 54.875L817.875 53.875L819.75 53.125L817.875 50.375L824.625 43.125L827.25 45.25L832.5 45.375C833.75 43.875 835.583 43.125 838 43.125C839.5 43.125 842.083 43.7083 845.75 44.875C846.167 46.2917 846.542 47 846.875 47C847.458 47 847.917 45.2083 848.25 41.625L857.5 41.75ZM856.375 4.25L858 4.375C860.583 5.625 862.708 6.83333 864.375 8C866.125 9.16667 867.5 10.3333 868.5 11.5C869.5 12.6667 870.208 13.9167 870.625 15.25C871.042 16.5833 871.25 18 871.25 19.5C871.25 21.4167 871 23.2917 870.5 25.125C870.083 26.9583 869.375 28.5833 868.375 30C867.458 31.4167 866.25 32.5833 864.75 33.5C863.25 34.3333 861.458 34.7917 859.375 34.875L851 40.125L852.875 35C843.958 32.25 839.5 28.1667 839.5 22.75L840 19.375C839.25 18.875 838.875 18.1667 838.875 17.25C838.875 15.9167 839.25 14.7083 840 13.625C840.75 12.4583 841.583 11.4583 842.5 10.625C843.417 9.79167 844.25 9.16667 845 8.75C845.833 8.33333 846.333 8.125 846.5 8.125L847.125 8.25C847.625 8.25 847.875 7.83333 847.875 7L847.75 6C847.75 5.16667 848.25 4.75 849.25 4.75C850.167 4.75 850.958 5.04167 851.625 5.625C852.375 6.20833 852.833 6.5 853 6.5C853.167 6.5 853.292 6.375 853.375 6.125C853.542 5.875 853.708 5.625 853.875 5.375C854.125 5.125 854.417 4.875 854.75 4.625C855.167 4.375 855.708 4.25 856.375 4.25Z" fill="#E27D60"/>
</svg>
